<?xml version="1.0" encoding="UTF-8"?>
<!DOCTYPE svg PUBLIC "-//W3C//DTD SVG 1.1//EN" "http://www.w3.org/Graphics/SVG/1.1/DTD/svg11.dtd">
<!-- Creator: CorelDRAW 2020 (64-Bit Testversion) -->
<svg xmlns="http://www.w3.org/2000/svg" xml:space="preserve" width="300mm" height="310mm" version="1.1" style="shape-rendering:geometricPrecision; text-rendering:geometricPrecision; image-rendering:optimizeQuality; fill-rule:evenodd; clip-rule:evenodd"
viewBox="0 0 30000 31000"
 xmlns:xlink="http://www.w3.org/1999/xlink"
 xmlns:xodm="http://www.corel.com/coreldraw/odm/2003">
 <defs>
  <style type="text/css">
   <![CDATA[
    .fil0 {fill:#00BFD8}
   ]]>
  </style>
 </defs>
 <g id="Ebene_x0020_1">
  <metadata id="CorelCorpID_0Corel-Layer"/>
  <path class="fil0" d="M27304.11 12586.17l-1727.22 1700.55c5.26,1760.8 229.49,2662.34 -238.73,4482.41 -525.29,2042.02 -1333.67,3396.33 -2556.56,4899.29l-1320.49 1224.91c-3542.77,3011.44 -9172.32,3433.9 -13145.24,938l-2090.26 -1640.28c-464.84,-553.84 -816.45,-645.32 -1716.85,-2105.01 -2897.7,-4697.65 -2059.8,-10754.15 1911.5,-14505.91l1396.96 -1062.6c2949.96,-1931.74 6622.74,-2551.15 10000.84,-1379.86 1235.48,428.39 2476.12,1055.46 3316.99,1732.04l1521.43 -1511.45c-772.7,-332.73 -1585.08,-1274.94 -3942.17,-2118.32 -7862.51,-2813.21 -16485.94,2223.94 -17869.95,10681.81 -640.3,3912.88 625.59,7851.75 2734.39,10458.48 1653.64,2044.07 3513.35,3468.96 6144.03,4412.2 3164.96,1134.82 7163.34,964.44 10093.85,-447.58 1040.86,-501.51 2325.47,-1263.8 3182.62,-2005.92 159.96,-138.5 249.45,-264.93 408.79,-407.14 3446.94,-3076.7 5365.6,-8814.47 3896.07,-13345.62z"/>
  <path class="fil0" d="M14239.31 16766.77l-2952.88 -2913.96c-559.36,-559.93 -2511.48,-2650.55 -2995.27,-2927.83l-2305.36 3487.92 8224.44 8234.98c850.13,-704.77 10446.93,-10427.99 11700.54,-11684.34 562.59,-563.8 3688.57,-3563.82 3883.94,-3956.83l-2290.47 -3442.75 -13264.94 13202.81z"/>
 </g>
</svg>
