<?xml version="1.0" encoding="UTF-8"?>
<!DOCTYPE svg PUBLIC "-//W3C//DTD SVG 1.1//EN" "http://www.w3.org/Graphics/SVG/1.1/DTD/svg11.dtd">
<!-- Creator: CorelDRAW 2020 (64-Bit Testversion) -->
<svg xmlns="http://www.w3.org/2000/svg" xml:space="preserve" width="300mm" height="310mm" version="1.1" style="shape-rendering:geometricPrecision; text-rendering:geometricPrecision; image-rendering:optimizeQuality; fill-rule:evenodd; clip-rule:evenodd"
viewBox="0 0 30000 31000"
 xmlns:xlink="http://www.w3.org/1999/xlink"
 xmlns:xodm="http://www.corel.com/coreldraw/odm/2003">
 <defs>
  <style type="text/css">
   <![CDATA[
    .fil0 {fill:#00BFD8}
   ]]>
  </style>
 </defs>
 <g id="Ebene_x0020_1">
  <metadata id="CorelCorpID_0Corel-Layer"/>
  <path class="fil0" d="M17022.96 10621.01c-700.66,323.84 -1281.11,720.81 -1849.49,1161.16 -775.41,-284.87 -1558.37,-718.91 -2423.3,-1042.39 -371.82,212.46 -1085.37,1135.19 -1300.64,1678.94l1059.24 1398.51c979.81,1018.18 696.73,125.51 220.07,2033.84 -233.65,935.43 37.88,599.95 -2795.97,1476.33l89.04 2070.42c581.27,350.26 2017.13,471.36 2754.82,513.06 180.11,765.46 551.11,1444.5 852.05,2060.9 -455.01,657.78 -1076.74,1345.26 -1472.01,2217.29 392.82,660.95 792.84,1140.68 1401.16,1529.64 943.53,-236.49 1675.66,-1044.94 2423.33,-1311.89 646.85,392.96 1148.43,625.66 1924.36,962.32 28.13,889.43 87.5,1864.6 318.57,2692.5l2020.79 282.16c518.6,-676.16 670.6,-1733.36 983.12,-2600.1l2182.75 -481.85c453.36,429.94 1196.71,1392.65 1917.46,1815.73 679.4,-246.54 1312.15,-730.69 1742.62,-1157.57 -122.37,-700.79 -567.76,-1894.17 -917.76,-2403.05 276.9,-626.27 939.71,-1059.92 1239.63,-1890.44l2825.05 215.4 589.38 -2024.69c-611.16,-522.97 -1578.84,-1093.51 -2409.62,-1341.2l-75.43 -2249.93c629.48,-537.3 1237.27,-745.01 2142.18,-1653.13l-776.68 -1881.18c-986.29,-52.27 -1869.05,342.31 -2743.83,434.39 -467.96,-586.82 -924.17,-1184.31 -1503.74,-1497.22 158.45,-925.16 580.16,-1718.95 609.83,-2799.67 -632.69,-226.78 -1133.1,-676.75 -1875.6,-825.32 -663.33,572.76 -1118.27,1285.33 -1730.94,2031.06l-2142.02 -247.91 -1209.54 -2419.18c-567.56,45.31 -1886.68,179.49 -2088.28,627.26 -146.71,325.93 -17.01,2201.36 19.4,2625.81zm2408.02 2322.45c-6500.57,1427.07 -4307.82,11162.1 2154.16,9688.49 2334.42,-532.34 4318.45,-2911.28 3730.25,-5823.99 -488.73,-2420.03 -2865.12,-4527.31 -5884.41,-3864.5z"/>
  <path class="fil0" d="M5360.75 1309.13l-292.1 1573.83c-656.73,176.97 -1128.52,625.69 -1442.74,713.94 -355.01,99.67 -1050.27,-394.13 -1515.15,-557.74 -388.18,333.25 -992.87,1023.28 -1204.41,1676.9 237.06,405.35 878.19,865.72 953.71,1100.36 44.69,138.92 -234.43,1392.62 -249.61,1803.46l-1404.56 640.8c74.94,856.82 278.92,1285.36 477.35,2023.64l1623.03 -54.04c476.92,584.54 665.99,884.14 1155.47,1257.2l-337.74 1595.89c579.18,367.93 1229,751.2 1952.37,755.48 312.38,-333.12 628.69,-797.19 775.79,-1214.97l1921.29 -41.74c172.45,351.77 607.37,844.82 829.77,1164.96 695.13,-144.58 1425.76,-541.69 1888.64,-953.32l-407.37 -1640.57c691.24,-475.9 629.97,-754.86 1107.84,-1297.23l1439.95 -0.76c349.65,-468.02 448.33,-1401.71 432.73,-2023.47 -244.54,-198.43 -374.99,-248.77 -697.62,-367.24 -662.42,-243.34 -885.21,-182.4 -1184.94,-2078.11 356.42,-301.75 701.32,-664.81 916.39,-1131.92 -247.43,-519.5 -912.27,-1254.32 -1368.09,-1544.49 -429.52,177.55 -943.37,441.66 -1224.32,733.57 -416.38,-117.96 -1173.99,-504.56 -1739.03,-716.69l-335.84 -1484.31c-659.84,-174.02 -1458.24,-79.16 -2070.81,66.57zm789.31 3376.77c-1551.56,282.13 -2792.54,1619.47 -2481.07,3491.34 642.11,3859.42 6689.58,2863.19 5898.67,-1138.14 -278.83,-1410.61 -1656.6,-2673.4 -3417.6,-2353.2z"/>
 </g>
</svg>
