<?xml version="1.0" encoding="UTF-8"?>
<!DOCTYPE svg PUBLIC "-//W3C//DTD SVG 1.1//EN" "http://www.w3.org/Graphics/SVG/1.1/DTD/svg11.dtd">
<!-- Creator: CorelDRAW 2020 (64-Bit Testversion) -->
<svg xmlns="http://www.w3.org/2000/svg" xml:space="preserve" width="300mm" height="310mm" version="1.1" style="shape-rendering:geometricPrecision; text-rendering:geometricPrecision; image-rendering:optimizeQuality; fill-rule:evenodd; clip-rule:evenodd"
viewBox="0 0 30000 31000"
 xmlns:xlink="http://www.w3.org/1999/xlink"
 xmlns:xodm="http://www.corel.com/coreldraw/odm/2003">
 <defs>
  <style type="text/css">
   <![CDATA[
    .fil1 {fill:#336699}
    .fil2 {fill:#659833}
    .fil0 {fill:white}
    .fil3 {fill:#659833;fill-rule:nonzero}
   ]]>
  </style>
 </defs>
 <g id="Ebene_x0020_1">
  <metadata id="CorelCorpID_0Corel-Layer"/>
  <path class="fil0" d="M10075.74 13109.95c-169.11,111.17 -428.48,177.22 -621.14,278.05 -833.78,436.39 -1029.63,1075 -1223.44,1324.82 -178.41,528.08 -393.95,1480.43 -79.67,2015.92 281.95,-207.85 488.58,-430.38 738.72,-660.74l1236.84 -1091.87c68.02,37.83 993.16,889.56 1042.81,993.46 128.33,-55.16 115.16,-84.95 271.05,-209.14l1695.87 -1508.36c-148.22,-360.5 -754.91,-813.01 -1206.5,-1008.44 -824.74,-356.92 -1272.99,-167.76 -1854.54,-133.7z"/>
  <path class="fil1" d="M27365.69 8434.37c1385.98,2205.06 2188.2,4814.15 2188.2,7610.87 0,7910.88 -6413.03,14323.9 -14323.9,14323.9 -5011.41,0 -9420.97,-2574.1 -11980.58,-6471.74l3616.45 -3392.95c1595.24,2986.03 4742.18,5018.06 8364.13,5018.06 5234.15,0 9477.26,-4243.12 9477.26,-9477.27 0,-1563.11 -378.53,-3037.78 -1048.88,-4337.37l3707.32 -3273.5z"/>
  <path class="fil2" d="M15229.99 1721.34c4596.28,0 8686.42,2165.24 11307.43,5530.87l-3643.83 3217.44c-1723.3,-2364.57 -4513.72,-3901.67 -7663.6,-3901.67 -5234.15,0 -9477.27,4243.11 -9477.27,9477.26 0,1070.83 177.79,2100.05 505.15,3060.07l-3753.02 3521.07c-1021.27,-1970.67 -1598.76,-4208.36 -1598.76,-6581.14 0,-7910.88 6413.02,-14323.9 14323.9,-14323.9z"/>
  <polygon class="fil3" points="-389.64,24506.17 11974.79,12905.88 15349.15,15605.36 27587.17,4799.42 28714.9,4570.5 28425.72,5747.11 15390.48,17256.98 12043.23,14579.2 478.69,25429.06 "/>
 </g>
</svg>
