<?xml version="1.0" encoding="UTF-8"?>
<!DOCTYPE svg PUBLIC "-//W3C//DTD SVG 1.1//EN" "http://www.w3.org/Graphics/SVG/1.1/DTD/svg11.dtd">
<!-- Creator: CorelDRAW 2020 (64-Bit Testversion) -->
<svg xmlns="http://www.w3.org/2000/svg" xml:space="preserve" width="300mm" height="310mm" version="1.1" style="shape-rendering:geometricPrecision; text-rendering:geometricPrecision; image-rendering:optimizeQuality; fill-rule:evenodd; clip-rule:evenodd"
viewBox="0 0 30000 31000"
 xmlns:xlink="http://www.w3.org/1999/xlink"
 xmlns:xodm="http://www.corel.com/coreldraw/odm/2003">
 <defs>
  <style type="text/css">
   <![CDATA[
    .fil0 {fill:#25AAE2}
    .fil2 {fill:#EB2126}
    .fil1 {fill:#00BFD8;fill-rule:nonzero}
   ]]>
  </style>
 </defs>
 <g id="Ebene_x0020_1">
  <metadata id="CorelCorpID_0Corel-Layer"/>
  <g>
   <path class="fil0" d="M26243.38 8526.36c213.02,231.85 1197.55,733.01 1512.44,827.98 -100.18,323.82 -244.51,445.9 -467.93,758.26l-1444.29 2013.06c-512.28,712.19 -5441.59,7716.54 -5761.3,7955.42 -237.33,-168.58 -388.62,-465.25 -579.32,-730.88l-1529.77 -2130.94c-661.33,-920.89 -1423.64,-1884.64 -2043.35,-2859.97l-4756.18 6577.73 -2668.14 -3705.93 -7813.05 10884.05 533.04 680.4 7287.24 -10142.48 2690.49 3713.04 4742.07 -6561.82c257.9,426.07 3900.72,5535.7 4136.97,5700.59 386.07,-290.64 7699.57,-10834.15 8205.53,-11345.68l617.03 2070.52 -2.54 -3693.82 -2658.94 -9.53z"/>
   <path id="1" class="fil1" d="M27777.4 9356.05l-43.16 -3.42 4.96 48.86 -31.71 -10.16 -35.3 -12.4 -38.65 -14.52 -41.76 -16.52 -44.6 -18.41 -47.19 -20.16 -49.53 -21.78 -51.59 -23.31 -53.4 -24.69 -54.94 -25.96 -56.22 -27.1 -57.25 -28.12 -57.99 -29.02 -58.49 -29.78 -58.72 -30.44 -58.69 -30.96 -58.39 -31.36 -57.83 -31.65 -57.01 -31.79 -55.92 -31.84 -54.58 -31.74 -52.96 -31.54 -51.08 -31.2 -48.96 -30.73 -46.57 -30.17 -43.91 -29.46 -40.99 -28.66 -37.82 -27.72 -34.4 -26.68 -30.74 -25.54 -26.82 -24.31 -22.71 -23.03 41.8 -88.76 21.67 21.97 26.06 23.61 30.14 25.04 33.92 26.32 37.44 27.44 40.67 28.42 43.63 29.28 46.33 30.01 48.74 30.61 50.9 31.08 52.8 31.44 54.42 31.64 55.78 31.76 56.87 31.73 57.71 31.57 58.27 31.3 58.57 30.9 58.6 30.38 58.37 29.72 57.89 28.96 57.13 28.06 56.1 27.04 54.8 25.9 53.26 24.63 51.45 23.23 49.35 21.72 47.01 20.08 44.38 18.31 41.5 16.42 38.33 14.4 34.9 12.26 31.17 9.98 4.96 48.86zm-4.96 -48.86l18.36 5.54 -13.4 43.32 -4.96 -48.86zm-477.63 837.48l-13.84 -64.14 -0.06 0.09 21.02 -29.18 20.56 -28.09 20.07 -27.08 19.58 -26.12 19.11 -25.24 18.63 -24.42 18.15 -23.66 17.68 -22.99 17.22 -22.37 16.74 -21.81 16.28 -21.34 15.82 -20.93 15.36 -20.55 14.9 -20.28 14.45 -20.04 14 -19.87 13.56 -19.77 13.12 -19.71 12.69 -19.76 12.3 -19.84 11.87 -19.98 11.5 -20.22 11.14 -20.52 10.8 -20.92 10.48 -21.41 10.18 -21.98 9.92 -22.66 9.67 -23.48 9.44 -24.35 9.23 -25.34 9.03 -26.43 8.83 -27.65 43.16 3.42 -10.21 31.91 -10.55 30.91 -10.89 29.92 -11.24 28.97 -11.57 28.06 -11.9 27.24 -12.24 26.4 -12.54 25.61 -12.84 24.9 -13.14 24.22 -13.42 23.6 -13.71 23.04 -13.96 22.54 -14.23 22.14 -14.52 21.83 -14.78 21.55 -15.06 21.39 -15.35 21.28 -15.64 21.28 -15.96 21.37 -16.26 21.49 -16.58 21.74 -16.92 22.05 -17.26 22.43 -17.62 22.91 -17.99 23.44 -18.35 24.06 -18.75 24.76 -19.14 25.52 -19.55 26.38 -19.96 27.29 -20.4 28.3 -0.06 0.09zm0.06 -0.09l-0.06 0.09 -1.43 1.99 1.49 -2.08zm-1458.19 1949.01l1444.29 -2013.06 13.84 64.14 -1444.29 2013.06 -0.06 0.08 -13.78 -64.22zm13.84 64.14l-0.06 0.08 1.02 -1.41 -0.96 1.33zm-5787.46 7969.2l38.48 -91.7 -15.5 2.41 37.58 -36.67 66.59 -76.82 91.28 -112.73 113.74 -145.65 134.33 -175.97 153.18 -203.8 170.34 -229.19 185.84 -252.14 199.65 -272.71 211.81 -290.85 222.31 -306.62 231.14 -319.98 238.33 -330.93 243.87 -339.51 247.74 -345.69 249.97 -349.48 250.53 -350.86 249.45 -349.87 246.71 -346.48 242.32 -340.7 236.28 -332.52 228.58 -321.96 219.23 -309.01 208.23 -293.66 195.57 -275.93 181.27 -255.79 165.3 -233.29 147.7 -208.38 128.43 -181.09 107.54 -151.42 85 -119.39 60.86 -85.04 13.72 64.3 -60.52 84.56 -84.84 119.17 -107.46 151.32 -128.39 181.03 -147.68 208.36 -165.3 233.27 -181.27 255.81 -195.59 275.95 -208.25 293.68 -219.25 309.05 -228.62 322 -236.32 332.58 -242.36 340.76 -246.77 346.56 -249.51 349.95 -250.59 350.96 -250.05 349.58 -247.82 345.81 -243.97 339.65 -238.45 331.11 -231.3 320.18 -222.47 306.84 -212.01 291.13 -199.91 273.05 -186.14 252.58 -170.76 229.73 -153.72 204.52 -135.09 176.97 -114.9 147.15 -93.24 115.13 -70.53 81.3 -48.82 46.97 -15.5 2.41zm15.5 -2.41l-9.21 6.88 -6.29 -4.47 15.5 -2.41zm-597.45 -731.13l43.74 -86.38 0 0 17.84 25.09 17.62 25.23 17.43 25.35 17.25 25.43 17.11 25.47 16.98 25.5 16.88 25.5 16.81 25.46 16.74 25.39 16.71 25.3 16.69 25.17 16.73 25.02 16.73 24.84 16.81 24.63 16.88 24.38 16.99 24.12 17.12 23.83 17.26 23.49 17.44 23.15 17.63 22.76 17.85 22.36 18.08 21.91 18.35 21.44 18.64 20.95 18.94 20.43 19.28 19.88 19.63 19.29 20.01 18.7 20.41 18.06 20.83 17.39 21.28 16.71 21.74 15.99 -38.48 91.7 -22.26 -16.35 -21.76 -17.09 -21.29 -17.79 -20.85 -18.44 -20.43 -19.08 -20.01 -19.69 -19.64 -20.24 -19.3 -20.81 -18.94 -21.31 -18.65 -21.78 -18.36 -22.25 -18.09 -22.66 -17.87 -23.06 -17.64 -23.41 -17.44 -23.75 -17.28 -24.05 -17.13 -24.32 -17 -24.56 -16.91 -24.77 -16.83 -24.96 -16.77 -25.12 -16.75 -25.23 -16.73 -25.34 -16.74 -25.39 -16.79 -25.44 -16.84 -25.44 -16.94 -25.42 -17.03 -25.37 -17.17 -25.29 -17.31 -25.19 -17.5 -25.05 -17.7 -24.89 0 0zm-1486.03 -2217.32l1529.77 2130.94 -43.74 86.38 -1529.77 -2130.94 43.74 -86.38zm-2058.47 -2784.48l-13.5 -64.6 29.08 -10.2 58.46 91.31 59.24 91.25 60 91.18 60.7 91.09 61.36 91.02 61.98 90.92 62.55 90.81 63.06 90.72 63.56 90.61 63.99 90.48 64.38 90.38 64.74 90.24 65.03 90.11 65.3 89.97 65.5 89.83 65.67 89.68 65.8 89.52 65.88 89.36 65.91 89.18 65.91 89.03 65.84 88.83 65.75 88.65 65.61 88.46 65.42 88.28 65.19 88.06 64.91 87.86 64.58 87.63 64.23 87.43 63.81 87.2 63.36 86.97 62.85 86.73 62.32 86.49 -43.74 86.38 -62.26 -86.43 -62.81 -86.67 -63.32 -86.91 -63.79 -87.16 -64.19 -87.39 -64.56 -87.61 -64.89 -87.84 -65.19 -88.04 -65.4 -88.26 -65.61 -88.46 -65.75 -88.65 -65.86 -88.85 -65.91 -89.03 -65.93 -89.22 -65.9 -89.38 -65.82 -89.56 -65.71 -89.72 -65.54 -89.87 -65.34 -90.03 -65.07 -90.17 -64.78 -90.32 -64.44 -90.44 -64.05 -90.58 -63.62 -90.69 -63.14 -90.82 -62.63 -90.93 -62.06 -91.04 -61.44 -91.14 -60.8 -91.23 -60.08 -91.32 -59.36 -91.41 -58.56 -91.49 29.08 -10.2zm-13.5 -64.6l18.93 -26.18 10.15 15.98 -29.08 10.2zm-4756.18 6577.73l4756.18 -6577.73 13.5 64.6 -4756.18 6577.73 -28.61 10.9 15.11 -75.5zm13.5 64.6l-18.27 25.26 -10.34 -14.36 28.61 -10.9zm-2653.03 -3781.43l2668.14 3705.93 -43.72 86.4 -2668.14 -3705.93 14.95 -75.29 28.77 -11.11zm-28.77 11.11l18.36 -25.57 10.41 14.46 -28.77 11.11zm-7813.05 10884.05l7813.05 -10884.05 13.82 64.18 -7813.05 10884.05 -28.44 11.55 14.62 -75.73zm-14.62 75.73l-20.74 -26.47 35.36 -49.26 -14.62 75.73zm533.04 680.4l-533.04 -680.4 43.06 -87.28 533.04 680.4 -14.64 75.75 -28.42 11.53zm28.42 -11.53l-17.92 24.94 -10.5 -13.41 28.42 -11.53zm7287.24 -10142.48l-7287.24 10142.48 -13.78 -64.22 7287.24 -10142.48 28.72 -11.13 -14.94 75.35zm-13.78 -64.22l18.31 -25.49 10.41 14.36 -28.72 11.13zm2675.55 3788.39l-2690.49 -3713.04 43.66 -86.48 2690.49 3713.04 -15.07 75.52 -28.59 10.96zm28.59 -10.96l-18.24 25.24 -10.35 -14.28 28.59 -10.96zm4742.07 -6561.82l-4742.07 6561.82 -13.52 -64.56 4742.07 -6561.82 29.27 -9.94 -15.75 74.5zm-13.52 -64.56l19.2 -26.57 10.07 16.63 -29.27 9.94zm4147.38 5689.5l-7.3 86.74 -15.53 2.53 -33.49 -31.01 -51.08 -57.35 -68.32 -82.56 -84.46 -106.14 -99.41 -128.02 -113.12 -148.14 -125.62 -166.53 -136.85 -183.13 -146.86 -198.01 -155.63 -211.11 -163.14 -222.43 -169.43 -232.02 -174.46 -239.84 -178.26 -245.88 -180.81 -250.17 -182.11 -252.71 -182.17 -253.47 -180.99 -252.47 -178.57 -249.71 -174.9 -245.18 -170 -238.9 -163.83 -230.85 -156.44 -221.04 -147.8 -209.45 -137.91 -196.13 -126.8 -181.03 -114.42 -164.17 -100.81 -145.56 -85.97 -125.18 -69.88 -103.06 -52.59 -79.21 -34.17 -53.81 45.02 -84.44 33.61 52.93 52.37 78.89 69.76 102.88 85.89 125.06 100.75 145.48 114.38 164.11 126.76 180.97 137.89 196.09 147.78 209.43 156.42 221 163.81 230.83 169.98 238.86 174.88 245.16 178.55 249.69 180.97 252.43 182.15 253.45 182.09 252.67 180.79 250.15 178.22 245.84 174.44 239.8 169.39 231.98 163.12 222.39 155.57 211.05 146.82 197.93 136.79 183.05 125.52 166.41 113.02 148 99.25 127.82 84.22 105.84 67.9 82.06 50.2 56.37 30.35 28.29 -15.53 2.53zm-7.3 86.74l-9.22 6.94 -6.31 -4.41 15.53 -2.53zm8233.77 -11426.41l-49.18 74.72 25.28 2.18 -63.52 72.9 -103.11 130.25 -138.57 182.35 -171.17 230.29 -201.12 274.38 -228.51 314.69 -253.35 351.25 -275.66 384.07 -295.46 413.17 -312.73 438.54 -327.47 460.2 -339.71 478.14 -349.43 492.36 -356.63 502.87 -361.32 509.66 -363.48 512.73 -363.15 512.1 -360.28 507.75 -354.91 499.68 -347.03 487.91 -336.61 472.41 -323.72 453.22 -308.28 430.31 -290.35 403.69 -269.91 373.36 -246.96 339.34 -221.52 301.64 -193.62 260.27 -163.25 215.27 -130.59 166.8 -96.05 115.28 -62.4 62.63 7.3 -86.74 49.74 -50.71 92.25 -110.76 128.81 -164.56 162.25 -213.93 192.96 -259.39 221.06 -301.02 246.64 -338.9 269.67 -373.02 290.15 -403.43 308.14 -430.09 323.6 -453.06 336.53 -472.29 346.95 -487.81 354.87 -499.62 360.24 -507.69 363.13 -512.08 363.48 -512.73 361.32 -509.66 356.65 -502.91 349.47 -492.42 339.77 -478.2 327.55 -460.32 312.83 -438.68 295.6 -413.37 275.84 -384.31 253.59 -351.59 228.85 -315.15 201.6 -275.04 171.89 -231.27 139.81 -183.95 105.55 -133.33 70.4 -80.56 25.28 2.18zm-25.28 -2.18l18.93 -19.14 6.35 21.32 -25.28 -2.18zm593.13 2147.42l-617.03 -2070.52 49.18 -74.72 617.03 2070.52 1.51 11.99 -50.69 62.73zm50.69 -62.73l0.16 233.37 -50.85 -170.64 50.69 -62.73zm-2.54 -3693.82l2.54 3693.82 -52.2 50.74 -2.54 -3693.82 40.05 -72.9 12.15 22.16zm-12.15 -22.16l12.13 0.04 0.02 22.12 -12.15 -22.16zm-2658.94 -9.53l2658.94 9.53 -27.9 95.06 -2658.94 -9.53 -6.95 -3.15 34.85 -91.91zm-34.85 91.91l-84.84 -92.34 119.69 0.43 -34.85 91.91z"/>
  </g>
  <polygon class="fil2" points="17718,16114.73 20076.36,19368.31 20077.95,4531.87 17730.16,4528.39 "/>
  <path class="fil2" d="M11184.98 20227.16c259.19,-198.71 439.29,-550.63 653.9,-851.89 322.68,-452.93 449.8,-375.63 443.25,-1224.48l-0.89 -10912.39 -2370.6 2.2c13.49,2446.06 1.36,4904.83 1.36,7357.68 0,1112.78 -59.55,2567.23 -3.05,3636.66 20.18,382 77.04,389.52 225.99,588.29 130.27,173.84 215,293.16 341.73,469.84 234.22,326.54 431.34,696.26 708.31,934.09z"/>
  <path class="fil2" d="M2111.74 25361.68c370.96,-305.1 867.23,-1112.73 1152.01,-1513.7 1542.76,-2172.25 1210.31,-1121.16 1210.31,-4436.48 0,-1015.79 6.44,-2035.72 -0.4,-3065.4l-2361.39 -20.27 -0.53 9035.85z"/>
  <path class="fil2" d="M13813.89 16542.66c328.05,-193.72 1693.52,-2343.63 2131.44,-2849.77l212.23 240.49 14.26 -5452.87 -2345.11 -1.26 -12.82 8063.41z"/>
  <path class="fil2" d="M6006.34 19924.26c290.84,-191.5 1658.8,-2201.12 1878.22,-2504.33 561.72,-776.17 500.3,-414.1 499.9,-1874.79 -0.24,-851.35 -10.28,-1715.59 4.64,-2565.35l-2386.76 7.94 4 6936.53z"/>
 </g>
</svg>
