<svg width="368" height="356" viewBox="0 0 368 356" fill="none" xmlns="http://www.w3.org/2000/svg">
<path fill-rule="evenodd" clip-rule="evenodd" d="M312.333 14.9852C351.777 29.7495 368 62.5635 368 107.894C368 145.654 357.202 179.805 351.327 217.089C344.727 258.971 365.889 313.763 331.492 339.578C297.094 365.392 249.05 330.628 206.261 325.957C173.727 322.405 138.736 315.511 111.053 315.511C69.0256 315.511 14.5457 298.735 1.97693 258.648C-10.8828 217.632 42.6222 186.217 57.9321 146.084C70.312 113.631 53.393 70.2629 79.8581 47.7656C106.323 25.2684 149.842 45.8333 183.915 38.9892C225.6 30.6157 272.491 0.0717673 312.333 14.9852Z" fill="#F5FAFE"/>
<g clip-path="url(#clip0)">
<path d="M274.705 234.401L282.738 291.464H278.804L268.804 234.565L274.705 234.401Z" fill="#7C4231"/>
<path d="M209.623 241.452L203.394 241.78L208.148 284.413H212.082L209.623 241.452Z" fill="#663429"/>
<path d="M200.279 244.404C198.476 244.404 196.508 244.568 194.705 244.568C194.705 262.277 194.705 279.822 194.705 297.531H197.492C198.476 279.822 199.295 262.113 200.279 244.404Z" fill="#7C4231"/>
<path d="M138.967 236.697L133.065 236.041L115.36 283.757C116.836 283.921 118.475 283.921 119.951 284.085C126.344 268.344 132.573 252.602 138.967 236.697Z" fill="#663429"/>
<path d="M134.213 236.533C148.967 239.156 161.098 241.288 170.114 242.764C198.803 247.519 205.688 248.175 211.59 248.339C219.295 248.667 230.606 249.159 245.032 247.355C265.852 244.567 278.967 242.928 289.131 233.089C297.819 224.563 292.573 218.824 303.393 197.507C312.082 180.454 317.327 179.142 316.18 173.403C313.065 158.481 273.393 152.578 245.032 154.382C231.59 155.202 220.606 157.825 213.393 159.957C214.377 156.185 220.934 128.474 203.393 106.665C189.786 90.2678 170.442 87.4802 159.95 85.8405C132.082 81.9051 109.95 92.8914 101.59 97.8106C97.6553 99.9423 95.0324 102.566 93.0652 105.025C82.2455 119.291 87.6553 145.363 105.36 170.615C104.377 170.451 98.8029 169.631 93.8848 173.567C93.0652 174.223 89.4586 177.174 88.6389 182.093C87.9832 186.521 89.7865 190.456 92.2455 194.391C101.754 208.657 131.59 234.401 134.213 236.533Z" fill="#A0A9C9"/>
<path d="M289.131 199.639C289.131 198.327 288.967 194.063 286.18 190.292C283.065 186.193 278.475 185.373 276.508 184.881C241.754 178.65 224.213 179.798 224.049 179.798C200.77 179.798 178.311 180.946 156.508 183.405C161.098 196.031 165.688 208.657 170.278 221.119C208.639 220.955 247 220.627 285.36 220.463L289.131 199.639Z" fill="#4D5A80"/>
<path d="M106.836 95.023C106.836 95.023 98.3116 102.566 96.3443 112.404C95.1968 118.307 96.0165 123.719 98.1476 130.277C104.705 149.462 118.475 165.86 125.853 173.895C118.967 172.747 112.246 171.763 105.361 170.615C104.377 169.467 103.394 167.992 102.41 166.516C102.41 166.516 98.3116 160.449 95.3607 154.054C91.2624 144.871 81.5902 123.227 91.2624 107.485C93.0657 104.37 97.3279 98.7944 106.836 95.023Z" fill="#D6D9E3"/>
<path d="M127.164 115.848C133.394 124.374 140.443 135.525 146.672 148.971C152.41 161.433 156.18 172.911 158.639 182.585C157.328 182.585 155.853 182.585 154.541 182.585C150.771 172.091 146.672 161.105 142.082 149.954C137.328 137.984 132.246 126.506 127.164 115.848Z" fill="#4D5A80"/>
<path d="M288.312 186.357C283.066 193.572 276.017 203.902 269.296 217.84C243.394 218.004 217.492 218.332 191.755 218.496C187.984 211.609 182.246 202.918 173.394 194.391C168.312 189.472 163.23 185.537 158.64 182.585C147.82 177.338 137.82 181.109 135.853 186.521C134.378 190.62 137.328 196.523 142.574 200.622C145.689 203.574 150.279 207.837 155.853 213.084C185.853 241.288 187.328 242.6 190.115 244.076C201.591 250.307 215.197 248.995 242.41 247.847C264.869 246.863 276.181 246.207 286.181 238.828C295.033 232.269 289.787 229.482 307.164 199.639C313.558 188.488 319.46 179.798 316.017 173.239C314.705 170.943 312.246 168.811 309.46 168.319C306.181 167.992 300.771 169.467 288.312 186.357Z" fill="#D6D9E3"/>
<path d="M140.934 114.536C141.59 114.208 150.934 128.802 158.475 147.659C164.049 161.597 167 173.895 168.639 182.257C167.328 182.421 166.016 182.421 164.705 182.585C162.902 174.879 160.115 163.564 155.361 150.118C147.82 128.31 140.279 114.864 140.934 114.536Z" fill="#4D5A80"/>
<path d="M174.378 111.912C175.361 111.748 181.099 127.49 184.542 145.855C187.164 160.285 187.82 172.419 187.82 180.782C186.509 180.782 185.361 180.946 184.05 180.946C183.394 172.911 182.246 160.777 179.951 146.019C176.837 124.374 173.558 112.076 174.378 111.912Z" fill="#4D5A80"/>
<path d="M188.64 112.404C189.295 112.24 195.361 129.622 198.476 151.594C200.115 163.4 200.443 173.239 200.443 180.126C199.131 180.29 197.82 180.454 196.345 180.454C196.345 172.747 196.017 161.105 194.541 147.167C192.082 126.178 188.148 112.568 188.64 112.404Z" fill="#4D5A80"/>
<path d="M155.688 112.896C156.508 112.568 165.524 127.654 171.918 147.003C176.508 160.941 178.475 172.911 179.295 181.273C178.147 181.437 177.164 181.437 176.016 181.601C174.541 173.731 171.918 162.088 167.655 148.151C161.098 126.178 154.868 113.224 155.688 112.896Z" fill="#4D5A80"/>
</g>
<path d="M204.008 123.641C206.8 125.085 210.547 128.072 215.16 132.805C219.773 137.538 224.559 142.315 227.678 148.434C228.911 150.85 229.853 157.944 227.074 157.038C218.333 154.173 208.179 147.744 201.774 141.128C200.211 139.492 198.338 137.998 197.18 136.063C193.467 129.943 197.469 120.267 204.008 123.641Z" fill="#DE7F56"/>
<path d="M252.787 101.227C253.594 99.2434 253.761 98.4884 253.117 98.166C252.599 97.8943 250.572 98.6108 249.522 100.256C246.454 105.109 245.019 104.44 243.425 104.125C243.621 103.553 243.824 103.028 244.045 102.617C245.412 99.9583 243.553 98.2506 243.295 98.8788C242.008 101.901 240.11 103.138 238.816 105.503C237.522 107.869 238.507 111.429 238.078 114.012C235.9 127.142 224.843 136.981 224.275 144.452C224.037 147.639 223.529 156.253 227.031 157.069C229.917 157.746 235.357 148.761 235.357 148.761C241.127 138.385 243.856 126.956 245.306 118.9C246.639 117.846 248.294 116.881 249.007 115.665C250.871 112.388 249.302 113.597 251.434 111.124C252.017 110.445 252.406 107.61 252.771 106.143C253.995 101.508 252.619 101.676 252.787 101.227Z" fill="#DE7F56"/>
<path d="M146.101 139.238C145.699 142.334 144.163 146.858 141.274 152.801C138.385 158.744 135.765 163.435 131.045 168.482C129.181 170.477 125.578 167.128 124.661 164.381C122.376 157.532 122.902 153.125 128.753 143.34C129.763 141.315 130.53 139.053 131.964 137.298C136.479 131.699 147.036 131.99 146.101 139.238Z" fill="#DE7F56"/>
<path d="M213.773 125.452C214.153 123.63 213.931 125.098 211.056 122.515C208.242 120.016 205.657 117.317 202.995 114.724C200.778 112.555 198.39 109.285 195.394 108.06C184.96 103.791 176.329 107.561 165.819 107.982C159.24 106.636 154.151 107.676 147.911 108.958C137.968 111.029 137.607 119.685 133.575 123.842C131.856 125.616 125.688 135.976 125.502 136.381C127.958 139.782 133.327 141.421 136.702 143.856C138.389 145.073 142.574 149.174 144.55 149.805C145.626 150.154 146.52 140.482 147.532 140.113C150.957 138.919 151.225 147.198 155.899 160.079C159.266 169.309 161.103 171.326 164.47 180.556C165.587 183.602 164.883 185.102 167 187.545C170.27 191.289 174.043 195.281 178.813 195.241C185.413 195.196 192.753 194.872 198.883 192.127C203.282 190.169 207.456 187.683 211.784 185.572C215.251 183.878 223.555 181.663 224.585 177.458C226.256 170.661 217.926 170.435 214.989 167.909C214.084 167.134 217.437 167.15 213.01 161.33C205.293 151.181 202.437 143.094 202.437 143.094C202.437 143.094 211.615 135.523 213.773 125.452Z" fill="#002777"/>
<path d="M171.651 119.601C169.947 119.491 168.119 118.743 166.634 118.058C162.512 116.163 157.888 112.278 157.356 107.048C157.344 106.815 157.504 106.626 157.736 106.589C157.972 106.576 158.163 106.734 158.199 106.964C158.704 111.869 163.079 115.534 166.994 117.32C168.606 118.055 170.991 119.023 172.8 118.74C174.03 118.547 176.331 118.07 177.905 116.884C180.238 115.085 180.454 111.148 179.351 108.5C179.28 108.346 179.205 108.17 179.133 108.017C179.031 107.821 179.111 107.573 179.333 107.468C179.531 107.367 179.78 107.445 179.886 107.664C179.984 107.836 180.059 108.013 180.134 108.189C181.373 111.099 181.089 115.516 178.437 117.553C176.739 118.853 174.278 119.378 172.956 119.585C172.512 119.631 172.083 119.628 171.651 119.601Z" fill="#64D8B1"/>
<path d="M173.3 102.628C173.565 103.715 173.797 106.264 176.482 107.631C178.901 111.25 179.497 116.282 173.235 116.814C169.295 117.148 164.29 113.863 162.074 111.083C160.982 109.726 160.287 108.471 159.826 107.038C159.595 106.322 161.725 105.965 158.18 101.677C158.044 100.805 159.364 98.1531 160.24 97.5225C162.844 95.6343 166.885 100.809 169.835 101.289C171.029 101.478 172.439 101.681 173.3 102.628Z" fill="#D97347"/>
<path d="M173.3 102.628C172.439 101.681 171.029 101.478 169.808 101.269C166.881 100.787 165.703 102.522 163.099 104.411C162.223 105.041 166.987 110.738 171.233 109.628C172.534 109.283 173.605 107.776 174.507 105.942C173.626 104.716 173.484 103.351 173.3 102.628Z" fill="#C56941"/>
<path d="M160.779 75.8799C163.539 75.4483 166.514 76.8406 168.688 78.2873C170.602 79.5867 174.349 80.5996 175.107 84.6894C176.322 91.2467 177.612 91.4446 177.961 94.8931C178.171 96.9996 174.979 106.832 171.214 107.985C168.673 108.758 163.775 106.609 157.899 101.556C155.455 99.4461 153.06 96.7408 151.015 93.3929C149.415 90.7515 149.167 85.9708 150.428 83.0935C151.34 81.0231 153.786 79.4888 155.718 78.3169C157.719 77.1341 158.482 76.239 160.779 75.8799Z" fill="#DE7F56"/>
<path d="M156.452 85.6077C157.048 84.8563 156.524 85.4555 158.393 86.0096C159.315 86.2885 160.395 86.3548 161.341 86.3245C165.885 86.2019 175.539 82.1479 177.967 79.6565C179.714 77.8649 181.165 68.0206 175.453 60.308C169.742 52.5954 149.438 55.7698 142.506 66.4713C135.575 77.1727 138.774 94.3895 146.462 98.2494C150.259 99.878 158.042 101.863 158.179 101.677C158.375 101.411 154.228 96.7699 154.21 94.6803C154.161 92.3841 156.604 92.966 157.652 94.0481C157.854 94.2752 158.369 94.8295 158.552 94.3306C159.086 92.8835 157.765 91.7266 157.041 90.5937C155.707 88.5924 155.046 87.4028 156.452 85.6077Z" fill="#4C190A"/>
<path d="M155.731 83.2755C155.562 83.2549 155.401 83.139 155.353 82.982C154.861 81.2017 153.862 79.8296 152.803 78.3731C152.526 77.9697 152.226 77.5699 151.922 77.1472C151.797 76.9552 151.85 76.6882 152.022 76.5674C152.216 76.443 152.486 76.4949 152.607 76.664C152.884 77.0674 153.184 77.4671 153.461 77.8705C154.52 79.3271 155.61 80.8259 156.15 82.7633C156.209 82.9891 156.079 83.2211 155.851 83.2803C155.824 83.261 155.778 83.2682 155.731 83.2755Z" fill="#6B3B26"/>
<path d="M164.111 82.1168C163.94 82.126 163.859 82.1048 163.755 82.0177C163.658 81.9526 163.591 81.8283 163.597 81.7032C163.589 81.4606 163.692 81.3271 164.313 80.7468C164.387 80.6724 164.46 80.5981 164.483 80.5905C164.557 80.5161 164.623 80.4198 164.719 80.3379C165.147 79.8478 165.583 79.3798 165.832 78.877C167.201 76.3471 167.697 74.3121 167.479 72.0789C167.449 71.8439 167.626 71.6361 167.848 71.6337C168.085 71.6017 168.294 71.7759 168.295 71.9965C168.528 74.4206 168.025 76.5807 166.561 79.2661C166.274 79.8061 165.809 80.3333 165.418 80.7861C166.617 80.3024 168.224 79.5568 169.428 78.5803C173.308 75.4125 174.831 70.866 173.462 66.4247C173.124 65.3621 172.039 63.2046 171.111 62.8839C170.888 62.8128 170.783 62.5786 170.856 62.3572C170.929 62.1358 171.166 62.0302 171.389 62.1013C172.882 62.6218 174.037 65.4918 174.247 66.1807C175.707 70.9593 174.096 75.8304 169.943 79.2144C168.546 80.3548 166.688 81.162 165.4 81.6761L165.333 81.6989C164.681 81.9708 164.326 82.0923 164.111 82.1168Z" fill="#6B3B26"/>
<path d="M275.339 298.921C276.907 300.745 278.049 303.34 279.446 305.285C281.025 307.483 282.601 309.658 284.203 311.852C285.867 314.131 284.369 314.13 282.575 315.727C282.013 316.238 281.561 317.297 280.688 317.339C280.263 317.358 279.465 316.355 279.19 316.116C277.915 314.951 276.85 313.613 275.677 312.339C273.73 310.222 271.635 308.222 269.856 305.961C269.559 305.584 268.138 304.09 268.323 303.45C268.697 302.193 271.473 300.795 272.522 300.208C273.356 299.772 274.726 298.194 275.339 298.921Z" fill="#FF8A66"/>
<path d="M258.61 265.472C257.024 269.623 250.453 283.533 249.072 289.298C248.548 290.202 245.422 290.574 244.539 291.158C244.387 291.253 243.585 287.64 243.335 287.561C241.541 286.878 241.924 280.964 241.596 279.323C241.476 278.707 241.379 277.476 242.062 277.134C243.491 276.393 243.75 278.351 244.882 277.234C245.877 275.691 247.731 268.395 248.872 263.985C250.157 259.13 258.912 264.673 258.61 265.472Z" fill="#FF8A66"/>
<path d="M236.483 277.324C235.251 279.022 234.161 281.167 237.145 286.883C237.522 287.624 237.853 288.371 238.114 289.13C239.25 292.291 239.564 295.674 240.011 298.684C240.341 300.795 240.712 302.712 241.496 304.235C242.763 306.717 246.382 310.406 249.758 309.808C251.216 309.557 250.853 308.297 250.564 307.214C249.922 304.775 249.677 297.126 250.147 292.679C250.399 290.336 252.506 288.314 252.312 286.158C252.213 285.068 248.878 284.861 248.126 284.767C247.109 284.644 245.808 287.269 245.254 286.462C243.802 284.315 243.727 279.272 244.878 277.211C245.138 276.747 244.886 276.199 244.37 276.091C241.672 275.549 236.483 277.324 236.483 277.324Z" fill="#103E77"/>
<path d="M248.022 300.065C247.911 299.964 247.833 299.765 247.874 299.571C247.907 299.33 248.075 299.187 248.275 299.249L248.375 299.281C248.628 299.382 249.282 299.609 249.448 299.607C249.726 299.563 249.971 299.454 250.235 299.319C250.092 299.318 249.922 299.297 249.779 299.296C248.942 299.262 248.013 299.243 247.696 298.282C247.644 298.102 247.639 297.915 247.687 297.766C247.802 297.442 248.09 297.303 248.381 297.187L248.404 297.184C248.764 297.057 249.151 296.949 249.519 296.868C249.519 296.868 249.519 296.868 249.542 296.865C248.576 296.616 247.793 296.316 247.658 295.608C247.546 295.038 248.042 294.866 248.266 294.784C248.484 294.656 248.709 294.574 248.957 294.488C248.776 294.399 248.593 294.286 248.382 294.155L248.355 294.135C248.037 293.926 247.532 293.582 247.608 293.006C247.775 291.946 248.793 292.069 249.617 292.175C249.86 292.207 250.249 292.264 250.335 292.204C250.509 292.106 250.697 292.241 250.783 292.486C250.869 292.731 250.789 292.979 250.614 293.077C250.396 293.205 250.034 293.168 249.595 293.095C249.256 293.054 248.601 292.969 248.34 293.127C248.394 293.165 248.474 293.223 248.581 293.301C248.608 293.32 248.631 293.316 248.635 293.339C249.117 293.687 249.636 293.817 250.182 293.967L250.306 293.995C250.406 294.026 250.506 294.058 250.609 294.112C250.98 294.054 251.193 294.044 251.316 294.378L251.32 294.401C251.402 294.623 251.365 294.84 251.27 294.996C251.117 295.232 250.87 295.176 250.594 295.078L250.571 295.082C249.801 295.179 249.186 295.345 248.592 295.65C248.872 295.771 249.322 295.912 249.938 296.051C250.084 296.075 250.207 296.103 250.284 296.138L250.311 296.157C251.037 296.396 251.191 296.466 251.277 296.711C251.321 296.845 251.343 296.983 251.318 297.128C251.225 297.448 250.951 297.514 250.513 297.606C250.467 297.614 250.421 297.621 250.397 297.624C250.146 297.687 249.921 297.769 249.669 297.832C249.306 297.936 248.938 298.017 248.601 298.14L248.578 298.144C248.508 298.155 248.465 298.185 248.419 298.192C248.71 298.382 249.284 298.41 249.713 298.413C250.284 298.418 250.812 298.453 251.164 298.727C251.298 298.824 251.38 299.046 251.389 299.256C251.397 299.608 251.154 299.881 251.002 299.975C250.936 300.009 250.851 300.069 250.762 300.106C250.392 300.329 249.973 300.535 249.532 300.604C249.324 300.637 248.924 300.511 248.217 300.246L248.14 300.211C248.102 300.123 248.052 300.107 248.022 300.065Z" fill="white"/>
<path d="M245.295 307.708C243.013 306.184 241.676 304.019 240.989 300.835C240.512 298.7 240.474 296.778 240.419 294.906C240.378 292.82 240.332 290.852 239.645 288.891C238.295 284.964 237.867 282.985 237.917 280.721C237.924 280.461 238.131 280.264 238.393 280.27C238.655 280.276 238.854 280.48 238.847 280.74C238.805 282.909 239.212 284.75 240.525 288.588C241.256 290.684 241.29 292.724 241.341 294.879C241.389 296.705 241.421 298.581 241.883 300.625C242.706 304.375 244.394 306.509 247.684 307.946C247.915 308.051 248.027 308.316 247.924 308.567C247.817 308.795 247.55 308.908 247.296 308.806C246.582 308.495 245.907 308.13 245.295 307.708Z" fill="white"/>
<path d="M208.202 176.94C211.026 176.616 213.518 176.438 215.888 176.396C226.34 176.22 234.039 178.801 255.424 182.887C264.291 184.58 286.823 188.557 289.329 198.51C291.62 207.697 290.105 208.192 286.628 216.659C285.249 220.001 283.854 223.393 282.372 226.681C276.075 240.525 271.044 255.018 263.5 268.328C262.904 269.385 259.197 276.077 257.949 276.907C257.388 277.277 250.87 275.71 250.138 275.589C249.037 275.386 244.996 274.771 244.328 273.841C244.328 273.841 245.935 268.159 246.926 264.313C250.494 250.19 254.642 235.977 259.079 222.094C260.162 218.68 261.415 215.146 262.848 211.842C263.074 211.313 264.193 209.657 263.934 209.063C263.784 208.71 221.505 204.435 208.903 201.351C205.147 200.433 197.726 198.866 196.463 194.432C195.192 189.953 204.024 177.428 208.202 176.94Z" fill="#0046E3"/>
<path d="M255.346 256.602C255.299 256.609 255.273 256.59 255.223 256.574C254.996 256.492 254.883 256.228 254.971 256.026C256.164 253.018 257.301 249.949 258.405 246.979C260.027 242.611 261.694 238.071 263.576 233.686C264.917 230.561 266.403 227.296 267.838 224.157C270.444 218.483 273.115 212.611 275.181 206.975C275.644 205.68 277.246 199.811 276.874 198.952C275.859 198.382 273.36 198.514 271.711 198.607C271.24 198.634 270.815 198.653 270.483 198.658C264.817 198.745 260.184 198.905 255.951 199.19C243.508 200.007 231.405 198.138 220.983 193.796C220.756 193.714 220.667 193.446 220.75 193.221C220.834 192.996 221.105 192.907 221.332 192.989C231.65 197.277 243.607 199.122 255.912 198.327C260.168 198.038 264.801 197.878 270.49 197.787C270.799 197.786 271.223 197.767 271.671 197.744C273.556 197.637 276.151 197.514 277.381 198.238C277.775 198.482 278.124 199.039 277.229 202.893C276.757 204.895 276.124 206.922 276.011 207.268C273.953 212.951 271.258 218.826 268.655 224.523C267.221 227.662 265.735 230.927 264.39 234.029C262.528 238.388 260.834 242.908 259.238 247.295C258.134 250.265 257.001 253.358 255.785 256.369C255.71 256.498 255.515 256.623 255.346 256.602Z" fill="#2B2B2B"/>
<path d="M214.197 202.38C219.088 203.261 225.503 204.163 232.08 205.039L221.587 194.924L214.197 202.38Z" fill="#2B2B2B"/>
<path d="M215.887 176.396C215.887 176.396 216.885 186.584 220.804 193.871C226.219 203.886 232.927 213.205 238.633 223.104C241.922 228.796 245.733 234.172 248.848 239.962C250.354 242.759 250.967 245.461 251.467 248.51C251.886 250.889 255.377 255.892 256.494 258.021C260.306 265.23 263.824 272.533 267.791 279.671C271.232 285.88 271.504 286.401 274.748 292.712C275.121 293.43 278.4 298.747 278.286 299.235C278.16 299.796 271.795 306.363 269.064 308.2C268.57 308.536 266.798 310.271 266.246 309.934C258.734 302.316 258.28 296.063 251.297 286.199C245.14 277.522 237.332 269.527 234.363 265.125C225.796 252.429 214.932 239.481 204.926 227.762C192.939 211.275 181.7 206.873 178.488 194.985C177.388 192.054 175.715 181.501 179.807 180.462C200.96 175.156 215.887 176.396 215.887 176.396Z" fill="#0046E3"/>
<path d="M194.887 209.137C194.696 208.979 194.7 208.696 194.841 208.533C195.001 208.344 195.287 208.346 195.454 208.508C195.867 208.867 197.559 211.329 199.721 214.518C200.487 215.62 201.135 216.577 201.318 216.831C203.385 219.564 205.63 222.222 207.795 224.822C210.07 227.523 212.407 230.308 214.568 233.191C217.414 236.954 220.57 240.575 223.615 244.095C226.684 247.612 229.867 251.252 232.72 255.061C234.999 258.09 237.207 261.272 239.331 264.372C240.841 266.581 242.411 268.875 244.014 271.069C245.404 272.968 246.867 274.878 248.273 276.727C251.138 280.464 254.098 284.351 256.651 288.371C259.462 292.822 262.3 296.845 265.107 300.356C265.255 300.544 265.225 300.808 265.034 300.955C264.991 300.985 264.968 300.989 264.925 301.019C264.747 301.094 264.547 301.031 264.429 300.885C261.596 297.355 258.727 293.289 255.913 288.816C253.386 284.815 250.43 280.951 247.591 277.234C246.162 275.388 244.699 273.477 243.306 271.556C241.7 269.338 240.129 267.045 238.597 264.84C236.476 261.762 234.268 258.581 231.992 255.575C229.143 251.789 225.987 248.168 222.918 244.651C219.849 241.134 216.69 237.49 213.817 233.708C211.659 230.848 209.323 228.063 207.074 225.382C204.909 222.781 202.637 220.104 200.57 217.371" fill="#2B2B2B"/>
<path d="M266.559 307.981C266.381 308.056 266.181 307.993 266.059 307.824C265.911 307.636 265.964 307.369 266.155 307.221C269.912 304.495 274.146 301.176 276.874 297.341C277.011 297.155 277.286 297.088 277.477 297.247C277.664 297.382 277.73 297.654 277.57 297.843C274.741 301.788 270.467 305.16 266.645 307.921C266.648 307.944 266.606 307.974 266.559 307.981Z" fill="#2B2B2B"/>
<path d="M303.488 321.509C303.045 319.439 300.455 318.527 298.682 317.676C295.06 315.938 291.334 314.452 287.712 312.714C286.196 311.987 284.725 310.783 282.999 310.536C282.098 310.395 277.92 311.189 278.936 316.014C278.936 316.014 279.856 319.467 280.897 320.504C282.193 321.806 285.227 326.01 287.27 328.135C287.697 328.586 288.083 328.925 288.381 329.161C289.475 329.93 290.506 330.897 291.786 331.332C293.269 331.852 295.157 330.852 296.491 330.267C299.576 328.868 304.318 325.305 303.488 321.509Z" fill="#103E77"/>
<path d="M290.597 322.655C290.395 322.733 290.19 322.789 289.958 322.825C289.773 322.854 289.615 322.761 289.521 322.611C289.362 322.354 289.362 322.354 290.233 321.089C290.563 320.614 290.968 320.01 291.027 319.931C291.74 319.02 292.687 317.626 293.18 316.068C293.212 315.969 293.247 315.892 293.279 315.793C293.178 315.903 293.08 316.036 292.962 316.196C292.923 316.249 292.884 316.302 292.884 316.302L292.563 316.681C291.643 317.789 290.781 318.817 289.52 319.72C288.575 320.361 288.307 320.168 288.2 320.091C287.638 319.685 288.172 318.849 288.613 318.169C288.652 318.116 288.668 318.066 288.691 318.062C288.876 317.728 289.062 317.393 289.27 317.055C289.605 316.462 289.96 315.842 290.265 315.207C289.605 315.851 289.002 316.556 288.4 317.262C287.781 318.017 287.119 318.802 286.37 319.483C286.206 319.65 285.917 319.625 285.749 319.463C285.581 319.301 285.608 319.015 285.772 318.848C286.478 318.197 287.077 317.468 287.719 316.71C288.361 315.951 288.999 315.169 289.768 314.462C289.788 314.435 289.913 314.321 290.057 314.181C290.241 313.988 290.51 313.734 290.717 313.537C291.127 313.121 291.377 312.893 291.682 313.175C291.987 313.456 291.809 313.837 291.473 314.571C291.433 314.624 291.417 314.674 291.421 314.697C291.074 315.668 290.553 316.596 290.026 317.478C289.84 317.812 289.655 318.147 289.466 318.459C289.446 318.485 289.407 318.538 289.348 318.618C289.293 318.721 289.234 318.8 289.175 318.88C290.238 318.079 291.002 317.184 291.882 316.129L292.203 315.75C292.203 315.75 292.223 315.723 292.243 315.697C292.949 314.74 293.528 314.038 294.06 314.402C294.646 314.804 294.332 315.535 294.138 315.965C294.086 316.09 294.035 316.216 294.003 316.315C293.481 317.995 292.479 319.492 291.727 320.456C291.668 320.536 291.377 320.957 291.071 321.429C292.203 320.617 293.252 319.113 293.95 318.11L294.068 317.951C294.182 317.768 294.323 317.605 294.48 317.392C294.813 316.941 295.209 316.432 295.4 315.979C295.451 315.854 295.503 315.728 295.539 315.652C295.471 315.521 295.492 315.353 295.594 315.244L295.633 315.19C295.77 315.004 296.002 314.662 296.366 314.864C296.754 315.062 296.65 315.313 296.217 316.345C295.995 316.897 295.56 317.459 295.183 317.941C295.046 318.127 294.909 318.313 294.791 318.472L294.674 318.632C293.759 319.927 292.302 322.012 290.597 322.655Z" fill="white"/>
<path d="M294.581 329.296C292.631 330.048 290.125 329.523 288.393 328.782C288.163 328.677 288.077 328.432 288.184 328.204C288.291 327.976 288.539 327.89 288.769 327.995C290.554 328.774 293.273 329.289 294.992 328.127C296.198 327.327 296.906 325.923 297.574 324.573C297.74 324.265 297.902 323.934 298.067 323.626C298.174 323.398 298.278 323.146 298.374 322.849C298.57 322.278 298.801 321.63 299.327 321.196C299.896 320.73 300.812 320.658 301.492 320.599C301.608 320.58 301.704 320.589 301.797 320.574C302.032 320.561 302.247 320.716 302.263 320.972C302.276 321.205 302.119 321.417 301.86 321.434C301.767 321.449 301.648 321.444 301.532 321.462C300.968 321.503 300.195 321.577 299.836 321.868C299.478 322.159 299.314 322.632 299.157 323.15C299.061 323.447 298.946 323.771 298.799 324.052C298.634 324.36 298.491 324.665 298.329 324.996C297.605 326.449 296.862 327.929 295.466 328.876C295.202 329.011 294.895 329.177 294.581 329.296Z" fill="white"/>
<path d="M220.734 193.576C220.518 193.563 220.347 193.378 220.361 193.164C220.488 191.546 220.626 189.691 220.232 188.083C219.64 185.66 218.642 183.536 217.452 181.089C216.925 179.995 216.39 178.857 215.808 177.561C215.729 177.361 215.813 177.137 216.011 177.035C216.212 176.957 216.439 177.039 216.541 177.234C217.097 178.511 217.655 179.646 218.182 180.739C219.379 183.232 220.403 185.376 221.007 187.868C221.418 189.59 221.265 191.495 221.148 193.182C221.141 193.442 220.95 193.59 220.734 193.576Z" fill="#2B2B2B"/>
<path d="M171.961 192.047C171.552 192.016 171.207 191.788 171 191.374C170.298 190.073 170.345 189.559 170.728 188.206L170.804 187.935C172.13 183.19 175.083 179.578 179.099 177.752C184.604 175.269 190.898 174.943 197.364 174.802C199.638 174.752 201.943 174.603 204.156 174.469C206.485 174.316 208.91 174.172 211.303 174.127C212.322 174.109 213.42 173.984 214.494 173.863C216.013 173.697 217.555 173.526 218.973 173.633C219.213 173.643 219.388 173.851 219.35 174.068C219.34 174.305 219.129 174.479 218.91 174.443C217.587 174.344 216.069 174.511 214.596 174.67C213.499 174.795 212.378 174.923 211.309 174.926C208.939 174.967 206.537 175.107 204.208 175.26C201.972 175.398 199.667 175.547 197.37 175.6C190.974 175.73 184.796 176.038 179.426 178.476C175.631 180.198 172.862 183.617 171.593 188.117L171.517 188.388C171.198 189.543 171.179 189.935 171.719 190.956C171.851 191.194 171.994 191.195 172.04 191.188C172.372 191.183 172.79 190.812 172.929 190.485C172.996 190.309 173.087 190.131 173.155 189.956C173.935 188.258 174.188 187.994 174.006 186.071C173.993 185.838 174.154 185.648 174.386 185.612C174.622 185.599 174.813 185.757 174.848 185.986C175.043 188.142 174.755 188.483 173.922 190.306C173.855 190.481 173.764 190.66 173.693 190.812C173.447 191.368 172.757 191.969 172.069 191.983C172.057 192.055 172.011 192.062 171.961 192.047Z" fill="#64D8B1"/>
<path d="M240.152 111.619L247.364 94.5045C247.603 93.9029 248.156 93.4873 248.778 93.3665L253.459 92.4466C254.012 92.3366 254.453 92.8789 254.25 93.4044L244.689 116.011C244.498 116.464 243.898 116.581 243.536 116.238L240.5 113.234C240 112.771 239.887 112.201 240.152 111.619Z" fill="#292929"/>
<path d="M248.814 93.5961C248.168 93.7206 247.642 94.1555 247.4 94.7341L240.301 111.502C239.987 112.232 240.264 112.636 240.825 113.183L242.95 115.225C243.228 115.487 243.689 115.392 243.847 115.038L253.022 93.1499C253.094 92.9977 252.949 92.8322 252.787 92.8576L248.814 93.5961Z" fill="#46ECBA"/>
<path d="M158.378 210.338C159.64 212.067 160.195 212.608 160.817 212.241C161.328 211.953 161.806 209.88 160.964 208.128C158.466 202.986 159.81 202.143 160.937 200.979C161.32 201.447 161.66 201.896 161.892 202.299C163.43 204.854 165.89 204.21 165.492 203.66C163.6 200.978 163.563 198.736 162.237 196.397C160.911 194.059 157.338 192.987 155.36 191.256C145.307 182.455 142.844 167.988 136.762 163.541C134.165 161.647 127.074 156.642 124.493 159.133C122.361 161.183 127.116 170.504 127.116 170.504C132.884 180.84 141.186 189.197 147.293 194.692C147.478 196.366 147.412 198.261 148.068 199.503C149.867 202.803 149.677 200.849 150.644 203.945C150.911 204.793 153.125 206.625 154.184 207.71C157.487 211.198 158.084 209.959 158.378 210.338Z" fill="#DE7F56"/>
<path d="M169.292 104.538C172.183 104.919 173.579 99.5722 172.847 99.2845C172.495 99.1461 170.936 100.428 168.506 100.389C166.077 100.35 164.37 99.4994 163.953 100.071C163.537 100.642 165.024 103.976 169.292 104.538Z" fill="white"/>
<path d="M283.435 90.4011C285.665 87.3119 287.567 84.6872 290.267 82.016C291.089 81.2031 292.944 78.8107 293.225 78.2997C293.507 77.7887 294.423 76.2325 294.728 74.351" stroke="#533CD6" stroke-linecap="round" stroke-linejoin="round"/>
<path d="M285.642 97.6249C285.055 97.6249 284.468 97.5784 283.904 97.5088C281.767 97.23 278.48 95.697 277.612 95.1395C275.522 93.7923 273.785 91.7947 272.423 89.17C271.202 86.7775 270.333 83.8973 269.887 80.808C269.206 75.8373 270.075 71.1221 272.446 67.1966C274.818 63.2479 278.527 60.3444 283.176 58.8114C284.867 58.2307 286.557 57.9287 288.224 57.9287C291.911 57.9287 295.268 59.2992 297.992 61.9239C300.762 64.5951 302.57 68.3115 303.228 72.6783C304.049 78.0904 302.993 83.6418 300.246 88.2873C297.499 92.9561 293.413 96.1383 288.717 97.2532C287.684 97.5087 286.651 97.6249 285.642 97.6249Z" fill="#F7AB3E"/>
<path d="M288.224 58.0915C290.032 58.0915 291.793 58.44 293.437 59.1136C295.057 59.7872 296.559 60.7627 297.874 62.0402C299.213 63.3178 300.316 64.874 301.208 66.6393C302.124 68.4743 302.734 70.5183 303.063 72.7017C303.462 75.4194 303.415 78.1602 302.875 80.8778C302.359 83.5026 301.42 85.9647 300.105 88.2178C298.79 90.4709 297.146 92.3755 295.221 93.9086C293.225 95.488 291.042 96.5565 288.694 97.1372C287.684 97.3695 286.651 97.4856 285.665 97.4856C285.078 97.4856 284.515 97.4391 283.951 97.3695C281.838 97.0907 278.574 95.5809 277.706 95.0235C275.639 93.6995 273.925 91.7019 272.587 89.1004C271.366 86.7312 270.497 83.851 270.075 80.7849C269.723 78.2996 269.77 75.8839 270.216 73.5611C270.638 71.2848 271.46 69.1711 272.611 67.2665C274.959 63.341 278.645 60.4608 283.247 58.951C284.89 58.3703 286.557 58.0915 288.224 58.0915ZM288.224 57.7896C286.557 57.7896 284.843 58.0683 283.129 58.6722C273.55 61.8312 268.337 70.6577 269.746 80.8314C270.591 86.8241 273.104 92.4452 277.518 95.279C278.363 95.8132 281.674 97.3695 283.881 97.6714C284.444 97.7411 285.031 97.7876 285.642 97.7876C286.651 97.7876 287.684 97.6714 288.741 97.4391C298.532 95.0932 305.059 83.9207 303.345 72.6785C302.007 63.5733 295.691 57.7896 288.224 57.7896Z" fill="#FFD550"/>
<path d="M288.365 79.8094L288.248 80.0649L301.514 86.1505C301.561 86.0576 301.584 85.9647 301.631 85.8718L288.365 79.8094Z" fill="#FFD550"/>
<path d="M285.641 86.1972L285.523 86.4527L297.662 92.0274C297.733 91.9578 297.803 91.8648 297.874 91.7952L285.641 86.1972Z" fill="#FFD550"/>
<path d="M287.684 81.3889L287.566 81.6444L300.738 87.6836C300.785 87.5907 300.832 87.521 300.879 87.4281L287.684 81.3889Z" fill="#FFD550"/>
<path d="M287.003 82.9918L286.886 83.2473L299.846 89.1937C299.893 89.1008 299.964 89.0311 300.011 88.9382L287.003 82.9918Z" fill="#FFD550"/>
<path d="M284.984 87.7996L284.866 88.0551L296.371 93.3278C296.441 93.2581 296.535 93.1884 296.606 93.1187L284.984 87.7996Z" fill="#FFD550"/>
<path d="M281.579 95.7671L281.462 96.0225L285.218 97.7408C285.453 97.7408 285.688 97.7408 285.923 97.7408L281.579 95.7671Z" fill="#FFD550"/>
<path d="M282.26 94.1874L282.143 94.4428L288.67 97.4384C288.693 97.4384 288.717 97.4151 288.764 97.4151C288.881 97.3919 289.022 97.3455 289.139 97.3222L282.26 94.1874Z" fill="#FFD550"/>
<path d="M284.28 89.3793L284.162 89.6348L294.845 94.5359C294.939 94.4662 295.033 94.3965 295.103 94.3268L284.28 89.3793Z" fill="#FFD550"/>
<path d="M283.598 90.982L283.48 91.2375L293.13 95.6509C293.224 95.5812 293.342 95.5347 293.436 95.4651L283.598 90.982Z" fill="#FFD550"/>
<path d="M282.942 92.5847L282.824 92.8402L291.136 96.6484C291.253 96.602 291.371 96.5555 291.512 96.4859L282.942 92.5847Z" fill="#FFD550"/>
<path d="M286.322 84.5945L286.205 84.85L298.813 90.6335C298.884 90.5639 298.931 90.471 299.001 90.4013L286.322 84.5945Z" fill="#FFD550"/>
<path d="M293.813 67.0341L293.695 67.2896L303.181 71.6331C303.157 71.5169 303.134 71.4008 303.11 71.2847L293.813 67.0341Z" fill="#FFD550"/>
<path d="M293.131 68.6136L293.014 68.8691L303.485 73.6773C303.462 73.5611 303.462 73.445 303.438 73.3289L293.131 68.6136Z" fill="#FFD550"/>
<path d="M294.492 65.4319L294.375 65.6873L302.64 69.4724C302.593 69.3563 302.569 69.217 302.522 69.1009L294.492 65.4319Z" fill="#FFD550"/>
<path d="M295.174 63.8289L295.057 64.0844L301.795 67.1729C301.725 67.0336 301.678 66.8943 301.607 66.7549L295.174 63.8289Z" fill="#FFD550"/>
<path d="M295.855 62.226L295.737 62.4815L300.41 64.6181C300.316 64.4555 300.198 64.293 300.105 64.1536L295.855 62.226Z" fill="#FFD550"/>
<path d="M291.088 73.4218L290.971 73.6773L303.415 79.3913C303.438 79.2984 303.438 79.1823 303.462 79.0893L291.088 73.4218Z" fill="#FFD550"/>
<path d="M290.407 75.0013L290.29 75.2569L303.11 81.1337C303.133 81.0408 303.157 80.9479 303.18 80.8317L290.407 75.0013Z" fill="#FFD550"/>
<path d="M292.45 70.2165L292.333 70.472L303.626 75.6516C303.626 75.5355 303.626 75.4426 303.626 75.3265L292.45 70.2165Z" fill="#FFD550"/>
<path d="M289.727 76.6042L289.609 76.8597L302.687 82.8523C302.711 82.7594 302.734 82.6665 302.758 82.5736L289.727 76.6042Z" fill="#FFD550"/>
<path d="M289.045 78.2069L288.928 78.4624L302.147 84.5249C302.17 84.432 302.217 84.3391 302.24 84.2461L289.045 78.2069Z" fill="#FFD550"/>
<path d="M291.77 71.8194L291.652 72.0749L303.58 77.5567C303.58 77.4405 303.58 77.3476 303.603 77.2315L291.77 71.8194Z" fill="#FFD550"/>
<path d="M283.271 96.3942C279.444 96.3942 275.969 94.8379 273.245 91.9112C270.663 89.1007 268.878 85.1055 268.244 80.6691C267.54 75.6519 268.385 70.6115 270.592 66.4769C272.917 62.1334 276.556 59.0441 281.111 57.5343C282.801 56.9536 284.492 56.6516 286.159 56.6516C289.845 56.6516 293.203 58.0221 295.926 60.6468C298.697 63.318 300.505 67.0344 301.162 71.4012C301.984 76.8133 300.927 82.3647 298.18 87.0102C295.433 91.679 291.348 94.8612 286.652 95.9761C285.525 96.2781 284.375 96.3942 283.271 96.3942Z" fill="#FFD550"/>
<path d="M286.181 56.8139C287.989 56.8139 289.75 57.1623 291.394 57.8359C293.014 58.5095 294.517 59.4851 295.831 60.7626C297.17 62.0402 298.273 63.5964 299.165 65.3617C300.081 67.1967 300.692 69.2408 301.02 71.4242C301.419 74.1418 301.373 76.8827 300.833 79.6003C300.316 82.2251 299.377 84.6872 298.062 86.9403C296.747 89.1934 295.104 91.0981 293.178 92.6311C291.183 94.2106 288.999 95.2791 286.651 95.8598C285.524 96.1153 284.374 96.2546 283.294 96.2546C279.49 96.2546 276.062 94.7216 273.385 91.8181C272.094 90.4245 271.014 88.7753 270.169 86.8706C269.323 84.966 268.736 82.8755 268.431 80.6456C268.079 78.1602 268.103 75.6516 268.502 73.2592C268.901 70.8667 269.652 68.6136 270.756 66.5696C271.859 64.4791 273.315 62.6673 275.029 61.1807C276.813 59.6245 278.903 58.4631 281.18 57.6966C282.824 57.1159 284.514 56.8139 286.181 56.8139ZM286.181 56.5352C284.514 56.5352 282.801 56.8139 281.087 57.4178C271.507 60.5768 266.717 70.5415 268.126 80.692C269.394 89.7509 275.217 96.5566 283.27 96.5566C284.374 96.5566 285.524 96.4172 286.698 96.1617C296.489 93.8157 303.016 82.6432 301.302 71.4009C299.94 62.3189 293.648 56.5352 286.181 56.5352Z" fill="#FFE652"/>
<path d="M286.04 58.718C287.683 58.718 289.256 59.02 290.759 59.6471C292.238 60.251 293.577 61.1337 294.774 62.2951C297.263 64.6876 298.883 68.0324 299.47 71.9579C299.846 74.42 299.775 76.9054 299.306 79.3443C298.836 81.7135 297.991 83.9434 296.793 85.9874C295.596 88.0315 294.117 89.7503 292.379 91.1208C290.571 92.5377 288.599 93.5132 286.462 94.0242C285.429 94.2565 284.42 94.3727 283.434 94.3727C280.006 94.3727 276.906 92.979 274.488 90.3543C273.338 89.1 272.351 87.5901 271.6 85.8713C270.825 84.1524 270.309 82.2478 270.027 80.2502C269.393 75.744 270.144 71.2146 272.14 67.4981C273.15 65.6167 274.441 63.9675 275.991 62.6203C277.611 61.2034 279.489 60.1581 281.555 59.4845C283.034 58.9735 284.537 58.718 286.04 58.718ZM286.04 58.416C284.537 58.416 282.988 58.6716 281.414 59.2058C272.751 62.0628 268.407 71.0752 269.675 80.2966C270.825 88.496 276.085 94.6514 283.387 94.6514C284.396 94.6514 285.429 94.5353 286.486 94.303C295.361 92.1892 301.254 82.0619 299.728 71.8882C298.507 63.6423 292.802 58.416 286.04 58.416Z" fill="#F48521"/>
<path d="M291.933 75.6983C291.112 75.0944 290.032 74.8621 288.693 75.0014L288.67 74.8853C289.703 74.2582 290.384 73.4684 290.759 72.4928C291.135 71.5173 291.252 70.5417 291.112 69.5661C290.971 68.637 290.689 67.8937 290.29 67.3595C289.867 66.8253 289.351 66.4536 288.74 66.2446C288.106 66.0355 287.402 65.9891 286.58 66.0587C286.111 66.1052 285.641 66.1749 285.148 66.291L284.584 62.3191L282.377 63.0391L282.941 66.9414L281.438 67.406L280.875 63.5269L278.668 64.2237L279.208 68.0796L278.785 68.2189L278.221 68.3815L275.592 69.1713L275.967 71.8425L278.621 71.0527L280.687 85.3611L277.376 86.1973L277.775 88.9149L281.109 88.1019L282.049 87.8697L282.096 87.8464L282.659 91.6326L284.913 91.0983L284.35 87.289L285.876 86.8941L286.439 90.7267L288.67 90.1692L288.106 86.2902C288.834 86.0579 289.515 85.7559 290.149 85.4075C290.971 84.943 291.652 84.3855 292.192 83.7119C292.732 83.0383 293.131 82.2718 293.366 81.4356C293.6 80.5761 293.647 79.647 293.483 78.6018C293.248 77.2778 292.755 76.3022 291.933 75.6983ZM288.036 70.9366C288.177 71.8889 287.989 72.7019 287.519 73.3755C287.026 74.0491 286.157 74.5833 284.89 74.955L282.612 75.6054L281.814 70.1236L284.162 69.4035C285.336 69.0319 286.251 68.9854 286.885 69.2177C287.519 69.45 287.895 70.0075 288.036 70.9366ZM289.585 82.1788C288.951 82.9221 287.965 83.4796 286.627 83.828L283.903 84.5481L282.964 78.114L285.688 77.3475C287.026 76.9758 288.106 76.9294 288.881 77.2313C289.656 77.5333 290.125 78.2301 290.29 79.2754C290.431 80.4832 290.219 81.4356 289.585 82.1788Z" fill="#F48521"/>
<path d="M291.862 18.1863C292.355 19.9516 293.412 21.3685 293.741 21.8098C294.069 22.2743 296.112 24.3881 296.981 25.0849C299.869 27.3612 302.005 29.684 304.471 32.4248" stroke="#533CD6" stroke-linecap="round" stroke-linejoin="round"/>
<path d="M300.151 39.5784C295.525 38.9977 291.229 36.373 288.082 32.1688C284.936 27.9878 283.316 22.7616 283.504 17.4657C283.645 13.1918 284.983 9.4057 287.355 6.54871C289.679 3.76139 292.778 2.06578 296.3 1.67091C297.92 1.48509 299.587 1.60122 301.254 1.97287C305.903 2.94843 309.777 5.34087 312.501 8.8947C315.201 12.4253 316.563 16.8618 316.445 21.7163C316.375 24.7359 315.835 27.6162 314.919 30.0318C313.91 32.703 312.454 34.8167 310.599 36.3265C309.824 36.9537 306.819 38.7654 304.8 39.2764C304.26 39.4158 303.696 39.5087 303.133 39.5784C302.17 39.6945 301.184 39.6945 300.151 39.5784Z" fill="#F7AB3E"/>
<path d="M301.254 2.11246C305.856 3.08802 309.707 5.45724 312.407 8.98785C313.722 10.7067 314.731 12.6578 315.389 14.7948C316.07 16.9782 316.375 19.301 316.304 21.7166C316.234 24.713 315.694 27.57 314.802 29.9857C313.792 32.6336 312.36 34.7474 310.505 36.2339C309.73 36.8611 306.772 38.6496 304.753 39.1606C304.213 39.3 303.673 39.3929 303.109 39.4626C302.146 39.5787 301.16 39.5555 300.151 39.4626C297.826 39.1839 295.596 38.3709 293.506 37.0701C291.487 35.8158 289.702 34.1434 288.176 32.1226C286.65 30.1018 285.5 27.8255 284.701 25.3634C283.879 22.8083 283.527 20.1604 283.621 17.5124C283.692 15.3755 284.067 13.3314 284.748 11.4732C285.406 9.68469 286.298 8.05875 287.448 6.68831C288.575 5.31788 289.914 4.22618 291.393 3.41321C292.896 2.57701 294.563 2.066 296.3 1.88018C297.944 1.6479 299.587 1.74081 301.254 2.11246ZM283.363 17.466C282.964 28.4527 290.454 38.5103 300.127 39.7181C301.184 39.8342 302.193 39.8342 303.156 39.7181C303.719 39.6484 304.283 39.5555 304.823 39.4161C306.913 38.9051 309.941 37.0469 310.669 36.443C314.614 33.2376 316.422 27.57 316.586 21.7166C316.844 11.7752 310.857 3.83131 301.301 1.83373C299.564 1.43885 297.897 1.34594 296.3 1.53177C289.115 2.34473 283.692 8.56976 283.363 17.466Z" fill="#FFD550"/>
<path d="M286.486 30.0092C286.533 30.1021 286.58 30.1718 286.627 30.2647L298.719 22.9942L298.578 22.7619L286.486 30.0092Z" fill="#FFD550"/>
<path d="M290.735 35.282C290.806 35.3517 290.876 35.4213 290.97 35.491L302.029 28.8478L301.888 28.6156L290.735 35.282Z" fill="#FFD550"/>
<path d="M287.378 31.4265C287.425 31.4962 287.495 31.5891 287.542 31.6588L299.54 24.4347L299.399 24.2024L287.378 31.4265Z" fill="#FFD550"/>
<path d="M288.388 32.773C288.458 32.8427 288.505 32.9124 288.576 33.0053L300.386 25.8977L300.245 25.6654L288.388 32.773Z" fill="#FFD550"/>
<path d="M292.121 36.42C292.192 36.4897 292.285 36.5361 292.379 36.6058L302.875 30.3111L302.734 30.0788L292.121 36.42Z" fill="#FFD550"/>
<path d="M302.898 39.7644C303.133 39.7412 303.368 39.718 303.579 39.6948L307.007 37.6278L306.866 37.3955L302.898 39.7644Z" fill="#FFD550"/>
<path d="M299.775 39.6712C299.893 39.6945 300.034 39.7177 300.151 39.7177C300.175 39.7177 300.198 39.7177 300.222 39.7177L306.185 36.1413L306.044 35.9091L299.775 39.6712Z" fill="#FFD550"/>
<path d="M293.67 37.4654C293.764 37.5119 293.858 37.5816 293.952 37.628L303.696 31.7746L303.555 31.5423L293.67 37.4654Z" fill="#FFD550"/>
<path d="M295.408 38.3709C295.526 38.4174 295.62 38.4639 295.737 38.5103L304.542 33.2144L304.401 32.9821L295.408 38.3709Z" fill="#FFD550"/>
<path d="M297.403 39.1378C297.521 39.1842 297.662 39.2074 297.779 39.2539L305.363 34.7011L305.222 34.4688L297.403 39.1378Z" fill="#FFD550"/>
<path d="M289.49 34.0739C289.561 34.1436 289.631 34.2133 289.702 34.283L301.206 27.3612L301.065 27.1289L289.49 34.0739Z" fill="#FFD550"/>
<path d="M283.481 16.119C283.481 16.2351 283.457 16.3512 283.457 16.4674L292.097 11.2645L291.957 11.0322L283.481 16.119Z" fill="#FFD550"/>
<path d="M283.363 18.1397C283.363 18.2559 283.363 18.372 283.363 18.4649L292.919 12.728L292.779 12.4957L283.363 18.1397Z" fill="#FFD550"/>
<path d="M283.785 13.959C283.762 14.0751 283.738 14.2145 283.715 14.3306L291.252 9.80125L291.111 9.56897L283.785 13.959Z" fill="#FFD550"/>
<path d="M284.42 11.612C284.373 11.7514 284.326 11.8907 284.279 12.03L290.407 8.33769L290.266 8.10547L284.42 11.612Z" fill="#FFD550"/>
<path d="M285.594 8.94145C285.5 9.104 285.43 9.26655 285.336 9.42911L289.586 6.87471L289.445 6.64249L285.594 8.94145Z" fill="#FFD550"/>
<path d="M283.973 23.6448C283.996 23.7377 284.02 23.8306 284.043 23.9467L295.384 17.118L295.243 16.8857L283.973 23.6448Z" fill="#FFD550"/>
<path d="M284.443 25.3405C284.467 25.4334 284.514 25.5263 284.537 25.6193L296.23 18.5815L296.089 18.3492L284.443 25.3405Z" fill="#FFD550"/>
<path d="M283.434 20.0677C283.434 20.1838 283.457 20.2767 283.457 20.3929L293.741 14.2144L293.6 13.9821L283.434 20.0677Z" fill="#FFD550"/>
<path d="M285.029 26.9662C285.076 27.0591 285.1 27.152 285.147 27.2449L297.074 20.0679L296.933 19.8356L285.029 26.9662Z" fill="#FFD550"/>
<path d="M285.711 28.4993C285.758 28.5922 285.805 28.6619 285.828 28.7548L297.897 21.5077L297.756 21.2754L285.711 28.4993Z" fill="#FFD550"/>
<path d="M283.645 21.9026C283.668 21.9955 283.668 22.1117 283.691 22.2046L294.586 15.6545L294.445 15.4222L283.645 21.9026Z" fill="#FFD550"/>
<path d="M301.982 38.1387C297.356 37.558 293.06 34.9333 289.913 30.7291C286.767 26.5481 285.147 21.3219 285.335 16.026C285.476 11.7521 286.814 7.966 289.186 5.10901C291.51 2.3217 294.609 0.62608 298.131 0.23121C299.751 0.0453893 301.418 0.161527 303.085 0.533169C307.64 1.4855 311.467 4.08699 314.191 8.01246C316.774 11.7521 318.112 16.5138 317.995 21.4148C317.877 25.7584 316.609 29.8 314.426 32.7731C312.125 35.8856 308.979 37.7438 305.269 38.1619C304.236 38.278 303.109 38.278 301.982 38.1387Z" fill="#FFD550"/>
<path d="M303.085 0.695983C305.386 1.18376 307.499 2.08964 309.401 3.39038C311.209 4.64467 312.806 6.22414 314.097 8.1288C315.365 9.987 316.351 12.0775 316.985 14.3305C317.642 16.6068 317.924 18.9993 317.877 21.4382C317.83 23.5983 317.478 25.6888 316.867 27.6167C316.257 29.5214 315.412 31.2402 314.332 32.7268C312.054 35.816 308.931 37.651 305.292 38.0459C304.236 38.162 303.132 38.162 302.005 38.0459C299.681 37.7671 297.45 36.9542 295.36 35.6534C293.341 34.3991 291.557 32.7268 290.031 30.706C288.504 28.6852 287.354 26.4089 286.556 23.9468C285.734 21.3917 285.382 18.7438 285.476 16.0958C285.546 13.9589 285.922 11.9149 286.603 10.0567C287.26 8.26816 288.152 6.64223 289.303 5.27181C290.43 3.90138 291.768 2.80969 293.247 1.99673C294.75 1.16053 296.417 0.649528 298.154 0.463708C299.775 0.208205 301.418 0.324343 303.085 0.695983ZM285.217 16.0262C284.818 27.0128 292.308 37.0703 301.982 38.2781C303.156 38.4175 304.259 38.4175 305.316 38.3014C313.087 37.442 317.924 30.2646 318.159 21.415C318.417 11.4736 312.712 2.41482 303.156 0.394025C301.418 -0.000842837 299.751 -0.093753 298.154 0.0920673C290.946 0.905031 285.523 7.15324 285.217 16.0262Z" fill="#FFE652"/>
<path d="M302.945 2.46075C305.011 2.90208 306.937 3.71505 308.65 4.89967C310.294 6.03783 311.726 7.45472 312.9 9.17358C315.225 12.5416 316.422 16.8155 316.328 21.2056C316.281 23.1799 315.976 25.0381 315.412 26.7802C314.872 28.4991 314.098 30.0553 313.112 31.4026C311.069 34.1899 308.228 35.8623 304.941 36.2107C303.978 36.3268 302.992 36.3036 301.982 36.2107C299.893 35.9552 297.874 35.2119 295.972 34.0505C294.14 32.9124 292.52 31.4026 291.158 29.5676C289.773 27.7326 288.74 25.6885 288.012 23.4354C287.284 21.1359 286.956 18.7434 287.05 16.3277C287.19 12.4951 288.388 9.10389 290.501 6.54884C291.511 5.31777 292.732 4.31897 294.07 3.57568C295.432 2.8324 296.934 2.36784 298.507 2.18202C299.94 2.04265 301.442 2.11234 302.945 2.46075ZM286.768 16.3277C286.392 26.2692 293.178 35.3977 301.959 36.4894C303.015 36.6056 304.025 36.6056 304.988 36.4894C312.008 35.6997 316.399 29.2191 316.633 21.2056C316.868 12.2164 311.703 3.99378 303.039 2.18202C301.466 1.8336 299.94 1.74069 298.507 1.90329C291.957 2.62335 287.05 8.29092 286.768 16.3277Z" fill="#F48521"/>
<path d="M308.651 21.5544L303.861 25.3406C303.814 25.3638 303.767 25.387 303.72 25.387C303.65 25.4103 303.556 25.387 303.462 25.3406L297.334 21.5544C297.264 21.508 297.193 21.5777 297.264 21.6474L304.166 29.7539C304.26 29.8468 304.378 29.8932 304.472 29.8932C304.589 29.8932 304.683 29.8468 304.73 29.7539L308.745 21.6474C308.792 21.5777 308.721 21.508 308.651 21.5544Z" fill="#F48521"/>
<path d="M308.861 18.2094L300.738 7.19936C300.573 6.96708 300.245 6.96708 300.151 7.19936L295.948 18.2094C295.901 18.3488 295.971 18.5346 296.136 18.6507L303.062 22.9247C303.133 22.9711 303.203 22.9943 303.273 22.9943C303.344 22.9943 303.391 22.9711 303.438 22.9479L308.838 18.674C308.979 18.5346 308.979 18.3488 308.861 18.2094Z" fill="#F48521"/>
<path d="M346.41 8.00195L345.048 8.76847L341.362 10.8822L340 11.6487V18.9422L341.362 19.7087L345.072 21.8225L346.433 22.589L347.795 21.8225L351.458 19.7087L352.82 18.9422V11.6487L351.458 10.8822L347.772 8.76847L346.41 8.00195ZM342.724 17.386V13.1817L346.41 11.068L350.096 13.1817V17.386L346.41 19.4997L342.724 17.386Z" fill="#46ECBA"/>
<path d="M253.757 49.4507L264.839 45.4789L263.9 42.9006L256.762 45.4556L256.927 42.4826L261.646 40.787L260.707 38.2087L257.115 39.5095L257.326 35.7467L254.555 35.5841L254.274 40.5082L250.306 41.9251L251.245 44.5033L254.109 43.4813L253.757 49.4507Z" fill="#46ECBA"/>
<path d="M337.74 54.7934L340.253 55.0257L334.5 59.6713C332.411 61.3438 329.335 61.065 327.621 59.0209L322.854 53.3765L325.39 53.6087L329.006 57.8828C330.11 59.1835 332.035 59.3694 333.373 58.3009L337.74 54.7934Z" fill="#46ECBA"/>
<path d="M323.982 67.9168L321.47 67.6846L327.246 63.0159C329.335 61.3435 332.411 61.6222 334.125 63.6662L338.915 69.3337L336.403 69.1014L332.763 64.7811C331.66 63.4804 329.734 63.2946 328.396 64.363L323.982 67.9168Z" fill="#46ECBA"/>
<defs>
<clipPath id="clip0">
<rect width="230" height="212.511" fill="white" transform="translate(87 85.0206)"/>
</clipPath>
</defs>
</svg>
